<?xml version="1.0" standalone="no"?>
<!DOCTYPE svg PUBLIC "-//W3C//DTD SVG 20010904//EN"
 "http://www.w3.org/TR/2001/REC-SVG-20010904/DTD/svg10.dtd">
<svg version="1.0" xmlns="http://www.w3.org/2000/svg"
 width="512.000000pt" height="512.000000pt" viewBox="0 0 512.000000 512.000000"
 preserveAspectRatio="xMidYMid meet">

<g transform="translate(0.000000,512.000000) scale(0.100000,-0.100000)"
fill="#000000" stroke="none">
<path d="M3202 4367 c-47 -15 -117 -80 -142 -132 -26 -53 -30 -139 -10 -200
10 -33 117 -144 591 -620 319 -319 579 -584 579 -588 0 -4 -897 -7 -1993 -7
-2213 0 -2058 5 -2137 -66 -115 -104 -114 -289 2 -388 83 -71 -86 -66 2137
-66 l2006 -1 -578 -574 c-633 -630 -621 -615 -620 -730 1 -188 199 -312 368
-231 40 19 211 185 866 842 885 887 843 840 843 954 1 115 39 72 -861 971
-905 902 -846 850 -964 848 -30 -1 -69 -6 -87 -12z"/>
</g>
</svg>
